<?xml version="1.0" encoding="utf-8"?>
<!-- Generator: Adobe Illustrator 24.3.0, SVG Export Plug-In . SVG Version: 6.00 Build 0)  -->
<svg version="1.1" id="Layer_1" xmlns="http://www.w3.org/2000/svg" xmlns:xlink="http://www.w3.org/1999/xlink" x="0px" y="0px"
	 viewBox="0 0 360 248.39" style="enable-background:new 0 0 360 248.39;" xml:space="preserve">
<style type="text/css">
	.st0{fill:#5064AE;}
	.st1{opacity:0.4;fill:#5064AE;}
	.st2{opacity:0.7;fill:#5064AE;}
</style>
<g>
	<path class="st0" d="M80.08,192.2c1.86-4.93,2.43-5.36,7.72-5.36h9.08c5.29,0,5.86,0.43,7.57,5.43l9.93,28.87
		c0.71,2.07,0.93,2.22,3.14,2.22h0.14c2.14,0,2.36,0.22,2.36,2.36v5.57c0,5.29-0.43,5.72-5.72,5.72H94.94
		c-5.29,0-5.72-0.43-5.72-5.72v-5.5c0-2.22,0.22-2.43,2.5-2.43h0.14c2.22,0,2.36-0.21,1.79-2.36v-0.14
		c-0.57-2.29-0.86-2.43-3.15-2.43h-3.79c-2.29,0-2.57,0.14-3.22,2.43l-0.07,0.21c-0.64,2.07-0.5,2.29,1.72,2.29h0.14
		c2.14,0,2.36,0.22,2.36,2.36v5.57c0,5.29-0.43,5.72-5.72,5.72H69c-5.29,0-5.72-0.43-5.72-5.72v-5.5c0-2.22,0.22-2.43,2.43-2.43
		h0.14c2.22,0,2.5-0.14,3.29-2.29L80.08,192.2z M88.87,211.85c2.29,0,2.43-0.22,1.86-2.43l-1-4.22c-0.57-2.22-0.86-2.22-1.57-0.07
		l-1.29,4.29c-0.64,2.22-0.5,2.43,1.86,2.43H88.87z"/>
	<path class="st0" d="M158.05,210.56c0,5.29-0.43,5.72-5.72,5.72h-6c-2.72,0-2.64,0-3.86-2.64c-0.64-1.43-1.79-1.64-2.86-1.64
		c-2.29,0-3.22,1.5-3.22,7.08c0,6.29,2.29,6.79,4.86,6.79c1.72,0,3.29-0.5,4.22-2c2.43-3.79,2.22-3.64,6.72-3.64h1
		c4.93,0,5.5,0.71,4.15,5.65c-2.14,8-9.15,12.08-17.87,12.08c-11.15,0-18.72-6.43-18.72-18.87c0-14.08,8.36-18.87,15.15-18.87
		c3.57,0,6.72,0.71,9.08,3.79c1.07,1.36,1.29,1.29,1.29-0.43v-0.14c0-2.14,0.22-2.36,2.43-2.36h3.64c5.29,0,5.72,0.43,5.72,5.72
		V210.56z"/>
	<path class="st0" d="M197.71,220c-0.07,1.36-0.14,1.5-1.57,1.5h-17.8c-2.57,0-2.86,0.36-2.22,2.86c0.64,2.22,2.14,2.79,4.72,2.79
		c1.29,0,2.43-0.29,3.36-1.07c3-2.72,2.57-2.57,6.65-2.57h1.79c4.93,0,5.43,0.79,3.22,5.5c-2.72,5.65-8.43,8.93-16.51,8.93
		c-11.94,0-19.15-7.22-19.15-18.79c0-13.08,9.65-18.94,19.15-18.94c10.93,0,18.37,6.29,18.37,18.08V220z M179.2,212.28
		c-1.14,0-2.07,0.36-2.64,1.5c-1.07,2-0.86,2.43,1.43,2.43h2.5c2.14,0,2.36-0.36,1.43-2.43
		C181.41,212.64,180.56,212.28,179.2,212.28z"/>
	<path class="st0" d="M212.86,237.01l-3.21-16.4h2.14c1,5.47,2,11.2,2.22,13.6h0.02c0.33-2.45,1.94-9.77,2.69-13.6h1.89
		c0.72,3.65,2.33,11.18,2.62,13.51h0.05c0.35-2.99,1.79-9.89,2.41-13.51h2.02l-3.47,16.4h-2.1c-0.71-3.68-2.18-10.62-2.53-13.2
		h-0.04c-0.39,2.75-1.88,9.62-2.63,13.2H212.86z"/>
	<path class="st0" d="M235.07,229.25h-5.43v5.99h6.05l-0.27,1.77h-7.77v-16.4h7.7v1.79h-5.7v5.07h5.43V229.25z"/>
	<path class="st0" d="M237.67,220.6h4.41c2.53,0,4.05,1.49,4.05,4.02c0,2.17-1.05,3.14-1.99,3.48c1.23,0.44,2.52,1.58,2.52,4.1
		c0,2.98-1.83,4.81-4.69,4.81h-4.29V220.6z M241.45,227.39c2.01,0,2.71-0.88,2.71-2.57c0-1.6-0.84-2.55-2.51-2.55h-2v5.12H241.45z
		 M239.66,235.37h2.12c1.84,0,2.85-1.09,2.85-3.18c0-2.1-1.04-3.17-3.19-3.17h-1.78V235.37z"/>
	<path class="st0" d="M254.73,232.64c0.13,1.62,0.89,2.94,2.63,2.94c1.67,0,2.47-0.93,2.47-2.7c0-1.65-0.69-2.55-2.89-3.61
		c-2.61-1.25-3.74-2.39-3.74-4.78c0-2.32,1.49-4.13,4.22-4.13c3.27,0,4.13,2.31,4.18,4.28h-1.98c-0.08-0.82-0.33-2.62-2.26-2.62
		c-1.5,0-2.14,1.02-2.14,2.29c0,1.5,0.67,2.2,2.7,3.16c2.88,1.37,3.98,2.72,3.98,5.22c0,2.59-1.49,4.53-4.59,4.53
		c-3.38,0-4.47-2.2-4.6-4.6H254.73z"/>
	<path class="st0" d="M273.46,228.67c0,5.67-1.39,8.59-4.98,8.59c-3.41,0-4.87-2.83-4.87-8.58c0-5.65,1.71-8.32,4.96-8.32
		C272,220.37,273.46,223.08,273.46,228.67z M265.69,228.65c0,4.53,0.88,6.88,2.85,6.88c2.04,0,2.85-2.26,2.85-6.85
		c0-4.59-0.87-6.56-2.86-6.56C266.57,222.11,265.69,224.33,265.69,228.65z"/>
	<path class="st0" d="M276.01,220.6h2.02v14.65h5.81l-0.26,1.76h-7.56V220.6z"/>
	<path class="st0" d="M287.27,220.6v11.47c0,1.72,0.49,3.46,2.59,3.46c2.09,0,2.59-1.46,2.59-3.47V220.6h2.02v11.5
		c0,2.98-1.1,5.17-4.65,5.17c-3.45,0-4.57-2.06-4.57-5.08V220.6H287.27z"/>
	<path class="st0" d="M299.52,222.4h-3.63v-1.79h9.27v1.79h-3.63v14.61h-2.02V222.4z"/>
	<path class="st0" d="M308.75,220.6v16.4h-2.02v-16.4H308.75z"/>
	<path class="st0" d="M321.19,228.67c0,5.67-1.39,8.59-4.98,8.59c-3.41,0-4.87-2.83-4.87-8.58c0-5.65,1.71-8.32,4.96-8.32
		C319.73,220.37,321.19,223.08,321.19,228.67z M313.41,228.65c0,4.53,0.88,6.88,2.85,6.88c2.04,0,2.85-2.26,2.85-6.85
		c0-4.59-0.87-6.56-2.86-6.56C314.3,222.11,313.41,224.33,313.41,228.65z"/>
	<path class="st0" d="M323.73,237.01v-16.4h2.43c4.32,10.92,4.96,12.5,5.16,13.23h0.02c-0.12-2.16-0.14-4.62-0.14-7.29v-5.94h1.86
		v16.4h-2.32c-4.48-11.5-5.07-13.05-5.26-13.72h-0.03c0.12,2.05,0.13,4.68,0.13,7.63v6.09H323.73z"/>
	<path class="st0" d="M337.25,232.64c0.13,1.62,0.89,2.94,2.63,2.94c1.67,0,2.47-0.93,2.47-2.7c0-1.65-0.69-2.55-2.89-3.61
		c-2.61-1.25-3.74-2.39-3.74-4.78c0-2.32,1.49-4.13,4.22-4.13c3.27,0,4.13,2.31,4.18,4.28h-1.98c-0.08-0.82-0.33-2.62-2.26-2.62
		c-1.5,0-2.14,1.02-2.14,2.29c0,1.5,0.67,2.2,2.7,3.16c2.88,1.37,3.98,2.72,3.98,5.22c0,2.59-1.49,4.53-4.59,4.53
		c-3.38,0-4.47-2.2-4.6-4.6H337.25z"/>
</g>
<path class="st1" d="M160.83,12.07c-32.98,0-60.38,14.5-66.16,33.62c-4.22-0.71-8.57-1.1-13.04-1.1
	c-36.58,0-66.24,24.85-66.24,55.51c0,22.56,16.07,41.97,39.14,50.65c-2.37,15.11,3.09,25.2,14.3,36.62
	c3.01-14.28,9.05-23.15,23.08-32.42c18.17-2.38,33.89-10.94,44-23.05l6.52,9.25l22-40.61l-45.64,7.11l5.44,7.71
	c-3.14,9.35-18.86,16.46-37.79,16.46c-7.34,0-14.19-1.08-20.01-2.93c-19.11-7.56-32.02-21.87-32.02-38.29
	c0-24.1,27.78-43.66,62.22-43.99c7.52,0.39,13.84,1.96,19.08,4.43c9.35-16.71,31.68-28.48,57.76-28.48
	c22.4,0,42.03,8.68,53.05,21.72C219.86,25.85,192.98,12.07,160.83,12.07z M132.46,127.21c0.02-0.04,0.04-0.08,0.06-0.11l0.05,0.06
	C132.53,127.18,132.5,127.19,132.46,127.21z"/>
<path class="st2" d="M249.56,43.97c-22.47,0-42.31,9.38-54.28,23.71l-6.52-9.25l-22,40.61l45.64-7.11l-5.44-7.71
	c3.14-9.35,18.86-16.46,37.79-16.46c7.34,0,14.19,1.08,20.01,2.93c19.11,7.56,32.02,21.87,32.02,38.29
	c0,24.1-27.78,43.66-62.22,43.99c-7.52-0.39-13.84-1.96-19.08-4.43c-9.35,16.71-31.68,28.48-57.76,28.48
	c-22.4,0-42.03-8.68-53.05-21.72c6.67,18.42,33.55,32.2,65.7,32.2c6.86,0,13.48-0.64,19.71-1.8c9.15,5.45,14.6,12.22,18.95,22.38
	c7.45-11.38,11-21.02,8.65-32.47c9.57-5.78,16.3-13.31,18.85-21.73c4.22,0.71,8.57,1.1,13.04,1.1c36.58,0,66.24-24.85,66.24-55.51
	C315.8,68.82,286.14,43.97,249.56,43.97z M198.73,72.37c-0.02,0.04-0.04,0.08-0.06,0.11l-0.05-0.06
	C198.65,72.4,198.69,72.38,198.73,72.37z"/>
</svg>
