<?xml version="1.0" encoding="utf-8"?>
<!-- Generator: Adobe Illustrator 24.3.0, SVG Export Plug-In . SVG Version: 6.00 Build 0)  -->
<svg version="1.1" id="Layer_1" xmlns="http://www.w3.org/2000/svg" xmlns:xlink="http://www.w3.org/1999/xlink" x="0px" y="0px"
	 viewBox="0 0 360 248.39" style="enable-background:new 0 0 360 248.39;" xml:space="preserve">
<style type="text/css">
	.st0{fill:#A7A9AC;}
	.st1{fill:#6D6E71;}
</style>
<g>
	<g>
		<path d="M80.81,191.7c1.84-4.89,2.41-5.32,7.66-5.32h9.01c5.25,0,5.82,0.43,7.52,5.39l9.86,28.66c0.71,2.06,0.92,2.2,3.12,2.2
			h0.14c2.13,0,2.34,0.21,2.34,2.34v5.53c0,5.25-0.42,5.68-5.68,5.68H95.57c-5.25,0-5.68-0.43-5.68-5.68v-5.46
			c0-2.2,0.21-2.41,2.48-2.41h0.14c2.2,0,2.34-0.21,1.77-2.34v-0.14c-0.57-2.27-0.85-2.41-3.12-2.41h-3.76
			c-2.27,0-2.56,0.14-3.19,2.41l-0.07,0.21c-0.64,2.06-0.5,2.27,1.7,2.27h0.14c2.13,0,2.34,0.21,2.34,2.34v5.53
			c0,5.25-0.42,5.68-5.68,5.68H69.81c-5.25,0-5.68-0.43-5.68-5.68v-5.46c0-2.2,0.21-2.41,2.41-2.41h0.14c2.2,0,2.48-0.14,3.26-2.27
			L80.81,191.7z M89.54,211.21c2.27,0,2.41-0.21,1.84-2.41l-0.99-4.18c-0.57-2.2-0.85-2.2-1.56-0.07l-1.28,4.26
			c-0.64,2.2-0.5,2.41,1.84,2.41H89.54z"/>
		<path d="M158.21,209.93c0,5.25-0.43,5.68-5.68,5.68h-5.96c-2.7,0-2.63,0-3.83-2.63c-0.64-1.42-1.77-1.63-2.84-1.63
			c-2.27,0-3.19,1.49-3.19,7.02c0,6.24,2.27,6.74,4.82,6.74c1.7,0,3.26-0.5,4.19-1.99c2.41-3.76,2.2-3.62,6.67-3.62h0.99
			c4.89,0,5.46,0.71,4.12,5.6c-2.13,7.95-9.08,11.99-17.74,11.99c-11.07,0-18.59-6.38-18.59-18.73c0-13.98,8.3-18.73,15.04-18.73
			c3.55,0,6.67,0.71,9.01,3.76c1.06,1.35,1.28,1.28,1.28-0.42v-0.14c0-2.13,0.21-2.34,2.41-2.34h3.62c5.25,0,5.68,0.43,5.68,5.68
			V209.93z"/>
		<path d="M197.58,219.3c-0.07,1.35-0.14,1.49-1.56,1.49h-17.66c-2.55,0-2.84,0.36-2.2,2.84c0.64,2.2,2.13,2.77,4.68,2.77
			c1.28,0,2.41-0.28,3.33-1.07c2.98-2.7,2.56-2.55,6.6-2.55h1.77c4.89,0,5.39,0.78,3.19,5.46c-2.7,5.6-8.37,8.87-16.39,8.87
			c-11.85,0-19.01-7.16-19.01-18.66c0-12.98,9.58-18.8,19.01-18.8c10.85,0,18.23,6.24,18.23,17.95V219.3z M179.2,211.64
			c-1.14,0-2.06,0.35-2.63,1.49c-1.06,1.99-0.85,2.41,1.42,2.41h2.48c2.13,0,2.34-0.35,1.42-2.41
			C181.4,211.99,180.55,211.64,179.2,211.64z"/>
		<path d="M212.62,236.18l-3.19-16.28h2.13c0.99,5.42,1.99,11.11,2.2,13.5h0.02c0.33-2.43,1.93-9.7,2.67-13.5h1.88
			c0.72,3.62,2.31,11.1,2.6,13.41h0.05c0.35-2.96,1.77-9.82,2.4-13.41h2l-3.44,16.28h-2.09c-0.7-3.65-2.16-10.54-2.51-13.11h-0.04
			c-0.39,2.73-1.87,9.55-2.61,13.11H212.62z"/>
		<path d="M234.66,228.48h-5.39v5.95h6l-0.27,1.76h-7.72V219.9h7.64v1.78h-5.66v5.03h5.39V228.48z"/>
		<path d="M237.25,219.9h4.38c2.51,0,4.02,1.48,4.02,3.99c0,2.16-1.04,3.11-1.98,3.45c1.22,0.44,2.5,1.56,2.5,4.07
			c0,2.96-1.81,4.77-4.65,4.77h-4.26V219.9z M241,226.63c2,0,2.69-0.87,2.69-2.56c0-1.59-0.84-2.53-2.49-2.53h-1.98v5.09H241z
			 M239.22,234.56h2.1c1.83,0,2.83-1.08,2.83-3.16c0-2.08-1.03-3.15-3.17-3.15h-1.76V234.56z"/>
		<path d="M254.18,231.85c0.13,1.61,0.88,2.92,2.61,2.92c1.66,0,2.45-0.93,2.45-2.68c0-1.64-0.69-2.53-2.87-3.58
			c-2.59-1.24-3.71-2.37-3.71-4.74c0-2.31,1.48-4.1,4.19-4.1c3.24,0,4.1,2.3,4.15,4.25h-1.97c-0.08-0.82-0.32-2.6-2.24-2.6
			c-1.49,0-2.12,1.01-2.12,2.28c0,1.49,0.66,2.19,2.68,3.14c2.86,1.36,3.95,2.7,3.95,5.19c0,2.57-1.47,4.49-4.56,4.49
			c-3.35,0-4.44-2.19-4.56-4.57H254.18z"/>
		<path d="M272.78,227.9c0,5.63-1.38,8.53-4.94,8.53c-3.38,0-4.83-2.81-4.83-8.51c0-5.61,1.7-8.26,4.92-8.26
			C271.33,219.66,272.78,222.36,272.78,227.9z M265.06,227.88c0,4.5,0.87,6.83,2.83,6.83c2.03,0,2.83-2.24,2.83-6.8
			c0-4.56-0.86-6.51-2.84-6.51C265.94,221.4,265.06,223.6,265.06,227.88z"/>
		<path d="M275.31,219.9h2v14.54h5.77l-0.26,1.74h-7.51V219.9z"/>
		<path d="M286.48,219.9v11.38c0,1.71,0.48,3.44,2.57,3.44c2.08,0,2.57-1.45,2.57-3.44V219.9h2v11.41c0,2.95-1.09,5.13-4.62,5.13
			c-3.42,0-4.53-2.04-4.53-5.05v-11.5H286.48z"/>
		<path d="M298.64,221.68h-3.6v-1.78h9.2v1.78h-3.6v14.5h-2V221.68z"/>
		<path d="M307.8,219.9v16.28h-2V219.9H307.8z"/>
		<path d="M320.15,227.9c0,5.63-1.38,8.53-4.95,8.53c-3.38,0-4.83-2.81-4.83-8.51c0-5.61,1.7-8.26,4.92-8.26
			C318.7,219.66,320.15,222.36,320.15,227.9z M312.43,227.88c0,4.5,0.87,6.83,2.83,6.83c2.03,0,2.83-2.24,2.83-6.8
			c0-4.56-0.86-6.51-2.84-6.51C313.31,221.4,312.43,223.6,312.43,227.88z"/>
		<path d="M322.68,236.18V219.9h2.41c4.29,10.84,4.92,12.41,5.13,13.13h0.02c-0.12-2.14-0.14-4.58-0.14-7.23v-5.9h1.85v16.28h-2.31
			c-4.45-11.41-5.03-12.95-5.22-13.61h-0.03c0.12,2.03,0.13,4.65,0.13,7.57v6.04H322.68z"/>
		<path d="M336.1,231.85c0.13,1.61,0.88,2.92,2.61,2.92c1.66,0,2.45-0.93,2.45-2.68c0-1.64-0.69-2.53-2.87-3.58
			c-2.59-1.24-3.71-2.37-3.71-4.74c0-2.31,1.48-4.1,4.19-4.1c3.24,0,4.1,2.3,4.15,4.25h-1.97c-0.08-0.82-0.32-2.6-2.24-2.6
			c-1.49,0-2.12,1.01-2.12,2.28c0,1.49,0.66,2.19,2.68,3.14c2.86,1.36,3.95,2.7,3.95,5.19c0,2.57-1.47,4.49-4.56,4.49
			c-3.35,0-4.44-2.19-4.56-4.57H336.1z"/>
	</g>
	<path class="st0" d="M160.97,12.9c-32.73,0-59.94,14.39-65.67,33.38c-4.19-0.71-8.51-1.09-12.94-1.09
		c-36.31,0-65.75,24.67-65.75,55.1c0,22.4,15.96,41.66,38.85,50.28c-2.35,15,3.07,25.02,14.19,36.35
		c2.99-14.18,8.98-22.98,22.91-32.18c18.04-2.36,33.64-10.86,43.68-22.88l6.48,9.18l21.84-40.31l-45.3,7.06l5.4,7.66
		c-3.12,9.28-18.72,16.34-37.51,16.34c-7.29,0-14.08-1.07-19.87-2.91c-18.97-7.51-31.78-21.71-31.78-38.01
		c0-23.92,27.57-43.34,61.76-43.66c7.46,0.39,13.73,1.94,18.94,4.4c9.28-16.59,31.45-28.28,57.34-28.28
		c22.23,0,41.72,8.62,52.66,21.56C219.56,26.58,192.89,12.9,160.97,12.9z M132.81,127.19c0.02-0.04,0.04-0.07,0.06-0.11l0.04,0.06
		C132.88,127.16,132.85,127.18,132.81,127.19z"/>
	<path class="st1" d="M249.05,44.56c-22.3,0-42,9.31-53.88,23.54l-6.48-9.18l-21.84,40.31l45.3-7.06l-5.4-7.66
		c3.12-9.28,18.72-16.34,37.51-16.34c7.29,0,14.08,1.07,19.87,2.91c18.97,7.51,31.78,21.71,31.78,38.01
		c0,23.92-27.57,43.34-61.76,43.66c-7.46-0.39-13.73-1.94-18.94-4.4c-9.28,16.59-31.45,28.28-57.34,28.28
		c-22.23,0-41.72-8.62-52.66-21.56c6.62,18.29,33.3,31.97,65.22,31.97c6.81,0,13.38-0.63,19.57-1.79
		c9.08,5.41,14.49,12.13,18.81,22.22c7.39-11.3,10.92-20.86,8.59-32.23c9.5-5.74,16.18-13.21,18.71-21.57
		c4.19,0.71,8.51,1.09,12.94,1.09c36.31,0,65.75-24.67,65.75-55.1C314.8,69.23,285.36,44.56,249.05,44.56z M198.59,72.75
		c-0.02,0.04-0.04,0.07-0.06,0.11l-0.05-0.06C198.52,72.79,198.55,72.77,198.59,72.75z"/>
</g>
</svg>
