<?xml version="1.0" encoding="utf-8"?>
<!-- Generator: Adobe Illustrator 24.3.0, SVG Export Plug-In . SVG Version: 6.00 Build 0)  -->
<svg version="1.1" id="Layer_1" xmlns="http://www.w3.org/2000/svg" xmlns:xlink="http://www.w3.org/1999/xlink" x="0px" y="0px"
	 viewBox="0 0 360 248.39" style="enable-background:new 0 0 360 248.39;" xml:space="preserve">
<style type="text/css">
	.st0{fill:#FFFFFF;}
</style>
<g>
	<path class="st0" d="M81.12,190.5c1.81-4.81,2.37-5.22,7.52-5.22h8.85c5.15,0,5.71,0.42,7.38,5.29l9.68,28.14
		c0.7,2.02,0.91,2.16,3.07,2.16h0.14c2.09,0,2.3,0.21,2.3,2.3v5.43c0,5.15-0.42,5.57-5.57,5.57H95.61c-5.16,0-5.57-0.42-5.57-5.57
		v-5.36c0-2.16,0.21-2.37,2.44-2.37h0.14c2.16,0,2.3-0.21,1.74-2.3v-0.14c-0.56-2.23-0.84-2.37-3.07-2.37h-3.69
		c-2.23,0-2.51,0.14-3.13,2.37l-0.07,0.21c-0.63,2.02-0.49,2.23,1.67,2.23h0.14c2.09,0,2.3,0.21,2.3,2.3v5.43
		c0,5.15-0.42,5.57-5.57,5.57H70.32c-5.16,0-5.57-0.42-5.57-5.57v-5.36c0-2.16,0.21-2.37,2.37-2.37h0.14c2.16,0,2.44-0.14,3.2-2.23
		L81.12,190.5z M89.68,209.66c2.23,0,2.37-0.21,1.81-2.37l-0.98-4.11c-0.56-2.16-0.84-2.16-1.53-0.07l-1.25,4.18
		c-0.63,2.16-0.49,2.37,1.81,2.37H89.68z"/>
	<path class="st0" d="M157.11,208.4c0,5.15-0.42,5.57-5.57,5.57h-5.85c-2.65,0-2.58,0-3.76-2.58c-0.63-1.39-1.74-1.6-2.79-1.6
		c-2.23,0-3.13,1.46-3.13,6.9c0,6.13,2.23,6.62,4.74,6.62c1.67,0,3.21-0.49,4.11-1.95c2.37-3.69,2.16-3.55,6.55-3.55h0.98
		c4.81,0,5.36,0.7,4.04,5.5c-2.09,7.8-8.92,11.77-17.41,11.77c-10.87,0-18.25-6.27-18.25-18.39c0-13.72,8.15-18.39,14.77-18.39
		c3.48,0,6.55,0.7,8.85,3.69c1.05,1.32,1.25,1.25,1.25-0.42v-0.14c0-2.09,0.21-2.3,2.37-2.3h3.55c5.15,0,5.57,0.42,5.57,5.57V208.4z
		"/>
	<path class="st0" d="M195.77,217.6c-0.07,1.32-0.14,1.46-1.53,1.46H176.9c-2.51,0-2.79,0.35-2.16,2.79
		c0.63,2.16,2.09,2.72,4.6,2.72c1.25,0,2.37-0.28,3.27-1.05c2.93-2.65,2.51-2.51,6.48-2.51h1.74c4.81,0,5.29,0.77,3.13,5.36
		c-2.65,5.5-8.22,8.71-16.09,8.71c-11.63,0-18.67-7.03-18.67-18.32c0-12.75,9.4-18.46,18.67-18.46c10.66,0,17.9,6.13,17.9,17.62
		V217.6z M177.73,210.07c-1.11,0-2.02,0.35-2.58,1.46c-1.05,1.95-0.84,2.37,1.39,2.37h2.44c2.09,0,2.3-0.35,1.39-2.37
		C179.89,210.42,179.05,210.07,177.73,210.07z"/>
</g>
<g>
	<path class="st0" d="M213.51,232.92l-3.13-15.99h2.09c0.97,5.33,1.95,10.91,2.16,13.26h0.02c0.33-2.39,1.89-9.52,2.62-13.26h1.85
		c0.71,3.56,2.27,10.9,2.55,13.17h0.05c0.34-2.91,1.74-9.64,2.35-13.17h1.97l-3.38,15.99h-2.05c-0.69-3.58-2.12-10.35-2.47-12.87
		h-0.03c-0.38,2.68-1.83,9.37-2.56,12.87H213.51z"/>
	<path class="st0" d="M235.16,225.36h-5.3v5.84h5.89l-0.26,1.72h-7.58v-15.99h7.5v1.75h-5.56v4.94h5.3V225.36z"/>
	<path class="st0" d="M237.7,216.93h4.3c2.46,0,3.94,1.45,3.94,3.92c0,2.12-1.02,3.06-1.94,3.39c1.2,0.43,2.45,1.54,2.45,3.99
		c0,2.91-1.78,4.69-4.57,4.69h-4.19V216.93z M241.38,223.54c1.96,0,2.65-0.85,2.65-2.51c0-1.56-0.82-2.49-2.45-2.49h-1.95v5H241.38z
		 M239.63,231.33h2.07c1.79,0,2.78-1.06,2.78-3.1c0-2.05-1.01-3.09-3.11-3.09h-1.73V231.33z"/>
	<path class="st0" d="M254.32,228.67c0.13,1.58,0.87,2.87,2.57,2.87c1.63,0,2.41-0.91,2.41-2.63c0-1.61-0.67-2.48-2.82-3.51
		c-2.55-1.22-3.65-2.33-3.65-4.66c0-2.27,1.45-4.02,4.11-4.02c3.18,0,4.03,2.25,4.07,4.17h-1.93c-0.08-0.8-0.32-2.55-2.2-2.55
		c-1.46,0-2.09,0.99-2.09,2.23c0,1.46,0.65,2.15,2.63,3.08c2.81,1.33,3.88,2.66,3.88,5.09c0,2.52-1.45,4.41-4.47,4.41
		c-3.29,0-4.36-2.15-4.48-4.48H254.32z"/>
	<path class="st0" d="M272.58,224.79c0,5.53-1.35,8.37-4.86,8.37c-3.32,0-4.74-2.76-4.74-8.36c0-5.51,1.67-8.11,4.83-8.11
		C271.16,216.7,272.58,219.35,272.58,224.79z M265.01,224.77c0,4.41,0.86,6.7,2.78,6.7c1.99,0,2.78-2.2,2.78-6.68
		c0-4.48-0.85-6.39-2.79-6.39C265.87,218.4,265.01,220.57,265.01,224.77z"/>
	<path class="st0" d="M275.07,216.93h1.97v14.27h5.66l-0.26,1.71h-7.37V216.93z"/>
	<path class="st0" d="M286.04,216.93v11.18c0,1.68,0.48,3.38,2.52,3.38c2.04,0,2.52-1.43,2.52-3.38v-11.17h1.97v11.21
		c0,2.9-1.07,5.04-4.54,5.04c-3.36,0-4.45-2.01-4.45-4.96v-11.29H286.04z"/>
	<path class="st0" d="M297.98,218.68h-3.54v-1.75h9.04v1.75h-3.54v14.24h-1.97V218.68z"/>
	<path class="st0" d="M306.98,216.93v15.99h-1.97v-15.99H306.98z"/>
	<path class="st0" d="M319.1,224.79c0,5.53-1.35,8.37-4.86,8.37c-3.32,0-4.74-2.76-4.74-8.36c0-5.51,1.67-8.11,4.83-8.11
		C317.68,216.7,319.1,219.35,319.1,224.79z M311.52,224.77c0,4.41,0.86,6.7,2.78,6.7c1.99,0,2.78-2.2,2.78-6.68
		c0-4.48-0.85-6.39-2.79-6.39C312.38,218.4,311.52,220.57,311.52,224.77z"/>
	<path class="st0" d="M321.58,232.92v-15.99h2.37c4.21,10.64,4.83,12.18,5.03,12.89h0.02c-0.12-2.11-0.14-4.5-0.14-7.1v-5.79h1.82
		v15.99h-2.27c-4.37-11.21-4.94-12.72-5.13-13.37h-0.02c0.12,1.99,0.13,4.56,0.13,7.44v5.93H321.58z"/>
	<path class="st0" d="M334.76,228.67c0.13,1.58,0.87,2.87,2.57,2.87c1.63,0,2.41-0.91,2.41-2.63c0-1.61-0.67-2.48-2.82-3.51
		c-2.55-1.22-3.65-2.33-3.65-4.66c0-2.27,1.45-4.02,4.11-4.02c3.18,0,4.03,2.25,4.07,4.17h-1.93c-0.08-0.8-0.32-2.55-2.2-2.55
		c-1.46,0-2.09,0.99-2.09,2.23c0,1.46,0.65,2.15,2.63,3.08c2.81,1.33,3.88,2.66,3.88,5.09c0,2.52-1.45,4.41-4.47,4.41
		c-3.29,0-4.36-2.15-4.48-4.48H334.76z"/>
</g>
<g>
	<path class="st0" d="M92.77,154.1c-13.77,9.07-19.68,17.72-22.62,31.69c-11.6-11.82-16.89-22.17-13.43-38.48"/>
	<path class="st0" d="M98.11,134.36c-33.97,0-61.5-19.2-61.5-42.89s27.54-42.89,61.5-42.89c0.61,0,1.22,0.02,1.83,0.03
		c-5.51-1.28-11.31-1.98-17.31-1.98c-35.66,0-64.56,24.22-64.56,54.11c0,29.88,28.91,54.11,64.56,54.11c27,0,50.12-13.9,59.76-33.62
		C131.2,129.31,115.5,134.36,98.11,134.36z"/>
	<polygon class="st0" points="163.34,101.15 118.86,108.08 130.38,124.41 141.9,140.73 	"/>
	<path class="st0" d="M124.42,109.8c0.19,0.8,0.31,1.62,0.31,2.45c0,10.71-16.75,19.39-37.4,19.39c-13.28,0-24.94-3.59-31.58-9
		c0.44,10.52,17.65,18.98,38.84,18.98c21.46,0,38.86-8.68,38.86-19.39C133.45,117.5,130.05,113.17,124.42,109.8z"/>
</g>
<path class="st0" d="M159.83,14.92c-32.6,0-59.64,14.54-64.73,33.58c8.29,0.17,15.15,1.76,20.76,4.41
	c9.11-16.29,30.88-27.76,56.3-27.76c21.83,0,40.96,8.46,51.71,21.17C217.36,28.35,191.17,14.92,159.83,14.92z"/>
<path class="st0" d="M178.42,179.34c15.28,6.2,22.76,13.53,28.38,26.65c9.07-13.86,12.23-25.05,5.64-40.36"/>
<path class="st0" d="M230.83,66.49c33.97,0,61.5,19.2,61.5,42.89s-27.54,42.89-61.5,42.89c-0.61,0-1.22-0.02-1.83-0.03
	c5.51,1.28,11.31,1.98,17.31,1.98c35.66,0,64.56-24.22,64.56-54.11c0-29.88-28.91-54.11-64.56-54.11c-27,0-50.12,13.9-59.76,33.62
	C197.74,71.54,213.44,66.49,230.83,66.49z"/>
<polygon class="st0" points="165.6,99.7 210.09,92.77 198.57,76.44 187.05,60.12 "/>
<path class="st0" d="M204.52,91.04c-0.19-0.8-0.31-1.62-0.31-2.45c0-10.71,16.75-19.39,37.4-19.39c13.28,0,24.94,3.59,31.58,9
	c-0.44-10.52-17.65-18.98-38.84-18.98c-21.46,0-38.86,8.68-38.86,19.39C195.5,83.35,198.89,87.68,204.52,91.04z"/>
<path class="st0" d="M169.12,185.93c32.6,0,59.64-14.54,64.73-33.58c-8.29-0.17-15.15-1.76-20.76-4.41
	c-9.11,16.29-30.88,27.76-56.3,27.76c-21.83,0-40.97-8.46-51.71-21.17C111.58,172.5,137.77,185.93,169.12,185.93z"/>
</svg>
