<?xml version="1.0" encoding="utf-8"?>
<!-- Generator: Adobe Illustrator 24.3.0, SVG Export Plug-In . SVG Version: 6.00 Build 0)  -->
<svg version="1.1" id="Layer_1" xmlns="http://www.w3.org/2000/svg" xmlns:xlink="http://www.w3.org/1999/xlink" x="0px" y="0px"
	 viewBox="0 0 360 248.39" style="enable-background:new 0 0 360 248.39;" xml:space="preserve">
<style type="text/css">
	.st0{fill:#FFFFFF;}
	.st1{opacity:0.3;}
	.st2{opacity:0.6;}
</style>
<g>
	<path class="st0" d="M82.6,190.5c1.81-4.81,2.37-5.23,7.52-5.23h8.85c5.15,0,5.71,0.42,7.38,5.29l9.68,28.14
		c0.7,2.02,0.9,2.16,3.06,2.16h0.14c2.09,0,2.3,0.21,2.3,2.3v5.43c0,5.15-0.42,5.57-5.57,5.57H97.09c-5.15,0-5.57-0.42-5.57-5.57
		v-5.36c0-2.16,0.21-2.37,2.44-2.37h0.14c2.16,0,2.3-0.21,1.74-2.3v-0.14c-0.56-2.23-0.84-2.37-3.07-2.37h-3.69
		c-2.23,0-2.51,0.14-3.13,2.37l-0.07,0.21c-0.63,2.02-0.49,2.23,1.67,2.23h0.14c2.09,0,2.3,0.21,2.3,2.3v5.43
		c0,5.15-0.42,5.57-5.57,5.57H71.8c-5.15,0-5.57-0.42-5.57-5.57v-5.36c0-2.16,0.21-2.37,2.37-2.37h0.14c2.16,0,2.44-0.14,3.21-2.23
		L82.6,190.5z M91.17,209.66c2.23,0,2.37-0.21,1.81-2.37L92,203.18c-0.56-2.16-0.84-2.16-1.53-0.07l-1.25,4.18
		c-0.63,2.16-0.49,2.37,1.81,2.37H91.17z"/>
	<path class="st0" d="M158.6,208.4c0,5.15-0.42,5.57-5.57,5.57h-5.85c-2.65,0-2.58,0-3.76-2.58c-0.63-1.39-1.74-1.6-2.79-1.6
		c-2.23,0-3.13,1.46-3.13,6.9c0,6.13,2.23,6.62,4.74,6.62c1.67,0,3.2-0.49,4.11-1.95c2.37-3.69,2.16-3.55,6.55-3.55h0.98
		c4.81,0,5.36,0.7,4.04,5.5c-2.09,7.8-8.92,11.77-17.42,11.77c-10.87,0-18.25-6.27-18.25-18.39c0-13.72,8.15-18.39,14.77-18.39
		c3.48,0,6.55,0.7,8.85,3.69c1.04,1.32,1.25,1.25,1.25-0.42v-0.14c0-2.09,0.21-2.3,2.37-2.3h3.55c5.15,0,5.57,0.42,5.57,5.57V208.4z
		"/>
	<path class="st0" d="M197.26,217.6c-0.07,1.32-0.14,1.46-1.53,1.46h-17.35c-2.51,0-2.79,0.35-2.16,2.79
		c0.63,2.16,2.09,2.72,4.6,2.72c1.25,0,2.37-0.28,3.27-1.05c2.93-2.65,2.51-2.51,6.48-2.51h1.74c4.81,0,5.29,0.77,3.13,5.36
		c-2.65,5.5-8.22,8.71-16.09,8.71c-11.63,0-18.67-7.03-18.67-18.32c0-12.75,9.4-18.46,18.67-18.46c10.66,0,17.9,6.13,17.9,17.62
		V217.6z M179.22,210.07c-1.11,0-2.02,0.35-2.58,1.46c-1.04,1.95-0.84,2.37,1.39,2.37h2.44c2.09,0,2.3-0.35,1.39-2.37
		C181.38,210.42,180.54,210.07,179.22,210.07z"/>
	<path class="st0" d="M212.03,234.18l-3.13-15.99h2.09c0.97,5.33,1.95,10.91,2.16,13.26h0.02c0.33-2.39,1.89-9.52,2.62-13.26h1.85
		c0.71,3.56,2.27,10.9,2.55,13.17h0.05c0.34-2.91,1.74-9.64,2.35-13.17h1.97l-3.38,15.99h-2.05c-0.69-3.58-2.12-10.35-2.47-12.87
		h-0.03c-0.38,2.68-1.83,9.37-2.56,12.87H212.03z"/>
	<path class="st0" d="M233.67,226.61h-5.3v5.84h5.89l-0.26,1.72h-7.58v-15.99h7.5v1.75h-5.56v4.94h5.3V226.61z"/>
	<path class="st0" d="M236.21,218.19h4.3c2.46,0,3.94,1.45,3.94,3.92c0,2.12-1.02,3.06-1.94,3.39c1.2,0.43,2.45,1.54,2.45,3.99
		c0,2.91-1.78,4.69-4.57,4.69h-4.19V218.19z M239.9,224.8c1.96,0,2.65-0.85,2.65-2.51c0-1.56-0.82-2.49-2.45-2.49h-1.95v5H239.9z
		 M238.15,232.58h2.07c1.79,0,2.78-1.06,2.78-3.1c0-2.05-1.01-3.09-3.11-3.09h-1.73V232.58z"/>
	<path class="st0" d="M252.84,229.92c0.13,1.58,0.87,2.87,2.57,2.87c1.63,0,2.41-0.91,2.41-2.63c0-1.61-0.67-2.48-2.82-3.51
		c-2.55-1.22-3.65-2.33-3.65-4.66c0-2.27,1.45-4.02,4.11-4.02c3.18,0,4.03,2.25,4.07,4.17h-1.93c-0.08-0.8-0.32-2.55-2.2-2.55
		c-1.46,0-2.09,0.99-2.09,2.23c0,1.46,0.65,2.15,2.63,3.08c2.81,1.33,3.88,2.66,3.88,5.09c0,2.52-1.45,4.41-4.47,4.41
		c-3.29,0-4.36-2.15-4.48-4.48H252.84z"/>
	<path class="st0" d="M271.1,226.05c0,5.53-1.35,8.37-4.86,8.37c-3.32,0-4.74-2.76-4.74-8.36c0-5.51,1.67-8.11,4.83-8.11
		C269.68,217.96,271.1,220.6,271.1,226.05z M263.52,226.03c0,4.41,0.85,6.7,2.78,6.7c1.99,0,2.78-2.2,2.78-6.68
		c0-4.48-0.85-6.39-2.79-6.39C264.38,219.66,263.52,221.82,263.52,226.03z"/>
	<path class="st0" d="M273.58,218.19h1.97v14.27h5.66l-0.26,1.71h-7.37V218.19z"/>
	<path class="st0" d="M284.55,218.19v11.18c0,1.68,0.47,3.38,2.52,3.38c2.04,0,2.52-1.43,2.52-3.38v-11.17h1.97v11.21
		c0,2.9-1.07,5.04-4.54,5.04c-3.36,0-4.45-2.01-4.45-4.96v-11.29H284.55z"/>
	<path class="st0" d="M296.5,219.93h-3.54v-1.75H302v1.75h-3.54v14.24h-1.97V219.93z"/>
	<path class="st0" d="M305.49,218.19v15.99h-1.97v-15.99H305.49z"/>
	<path class="st0" d="M317.62,226.05c0,5.53-1.35,8.37-4.86,8.37c-3.32,0-4.74-2.76-4.74-8.36c0-5.51,1.67-8.11,4.83-8.11
		C316.19,217.96,317.62,220.6,317.62,226.05z M310.04,226.03c0,4.41,0.86,6.7,2.78,6.7c1.99,0,2.78-2.2,2.78-6.68
		c0-4.48-0.85-6.39-2.79-6.39C310.9,219.66,310.04,221.82,310.04,226.03z"/>
	<path class="st0" d="M320.1,234.18v-15.99h2.37c4.21,10.64,4.83,12.18,5.03,12.89h0.02c-0.11-2.11-0.14-4.5-0.14-7.1v-5.79h1.82
		v15.99h-2.27c-4.37-11.21-4.94-12.72-5.13-13.37h-0.02c0.12,1.99,0.13,4.56,0.13,7.44v5.93H320.1z"/>
	<path class="st0" d="M333.28,229.92c0.13,1.58,0.87,2.87,2.57,2.87c1.63,0,2.41-0.91,2.41-2.63c0-1.61-0.67-2.48-2.82-3.51
		c-2.55-1.22-3.65-2.33-3.65-4.66c0-2.27,1.45-4.02,4.11-4.02c3.18,0,4.03,2.25,4.07,4.17h-1.93c-0.08-0.8-0.32-2.55-2.2-2.55
		c-1.46,0-2.09,0.99-2.09,2.23c0,1.46,0.65,2.15,2.63,3.08c2.81,1.33,3.88,2.66,3.88,5.09c0,2.52-1.45,4.41-4.47,4.41
		c-3.29,0-4.36-2.15-4.48-4.48H333.28z"/>
</g>
<path class="st1" d="M161.31,14.92c-32.14,0-58.86,14.13-64.49,32.77c-4.11-0.69-8.36-1.07-12.71-1.07
	c-35.66,0-64.57,24.22-64.57,54.11c0,21.99,15.67,40.91,38.15,49.37c-2.31,14.73,3.01,24.56,13.94,35.69
	c2.94-13.92,8.82-22.56,22.5-31.6c17.71-2.31,33.03-10.67,42.89-22.46l6.36,9.01l21.45-39.59l-44.48,6.93l5.31,7.52
	c-3.06,9.12-18.38,16.05-36.84,16.05c-7.15,0-13.83-1.05-19.51-2.86c-18.63-7.37-31.21-21.32-31.21-37.32
	c0-23.49,27.08-42.56,60.65-42.88c7.33,0.38,13.49,1.91,18.6,4.32c9.11-16.29,30.88-27.76,56.3-27.76
	c21.83,0,40.97,8.46,51.71,21.17C218.85,28.35,192.65,14.92,161.31,14.92z M133.66,127.15c0.02-0.04,0.04-0.07,0.06-0.11l0.04,0.06
	C133.73,127.12,133.7,127.14,133.66,127.15z"/>
<path class="st2" d="M247.8,46.01c-21.9,0-41.24,9.14-52.91,23.11l-6.36-9.01L167.09,99.7l44.48-6.93l-5.31-7.52
	c3.06-9.12,18.38-16.05,36.84-16.05c7.15,0,13.83,1.05,19.51,2.86c18.63,7.37,31.21,21.32,31.21,37.32
	c0,23.49-27.08,42.56-60.65,42.88c-7.33-0.38-13.49-1.91-18.6-4.32c-9.11,16.29-30.88,27.76-56.3,27.76
	c-21.83,0-40.97-8.46-51.71-21.17c6.51,17.96,32.7,31.39,64.04,31.39c6.69,0,13.14-0.62,19.21-1.76
	c8.92,5.31,14.23,11.91,18.47,21.82c7.26-11.1,10.72-20.49,8.43-31.65c9.33-5.64,15.89-12.97,18.37-21.18
	c4.11,0.69,8.36,1.07,12.71,1.07c35.66,0,64.57-24.22,64.57-54.11C312.37,70.24,283.46,46.01,247.8,46.01z M198.25,73.7
	c-0.02,0.04-0.04,0.07-0.06,0.11l-0.04-0.06C198.18,73.73,198.22,73.71,198.25,73.7z"/>
</svg>
