<?xml version="1.0" encoding="utf-8"?>
<!-- Generator: Adobe Illustrator 24.3.0, SVG Export Plug-In . SVG Version: 6.00 Build 0)  -->
<svg version="1.1" id="Layer_1" xmlns="http://www.w3.org/2000/svg" xmlns:xlink="http://www.w3.org/1999/xlink" x="0px" y="0px"
	 viewBox="0 0 360 248.39" style="enable-background:new 0 0 360 248.39;" xml:space="preserve">
<g>
	<path d="M78.99,191.91c1.85-4.91,2.42-5.34,7.69-5.34h9.04c5.27,0,5.83,0.43,7.54,5.41l9.89,28.75c0.71,2.06,0.93,2.21,3.13,2.21
		h0.14c2.13,0,2.35,0.21,2.35,2.35v5.55c0,5.27-0.43,5.69-5.69,5.69H93.79c-5.27,0-5.69-0.43-5.69-5.69v-5.48
		c0-2.21,0.21-2.42,2.49-2.42h0.14c2.21,0,2.35-0.21,1.78-2.35v-0.14c-0.57-2.28-0.85-2.42-3.13-2.42h-3.77
		c-2.28,0-2.56,0.14-3.2,2.42l-0.07,0.21c-0.64,2.06-0.5,2.28,1.71,2.28h0.14c2.13,0,2.35,0.21,2.35,2.35v5.55
		c0,5.27-0.43,5.69-5.69,5.69H67.96c-5.27,0-5.69-0.43-5.69-5.69v-5.48c0-2.21,0.21-2.42,2.42-2.42h0.14c2.21,0,2.49-0.14,3.27-2.28
		L78.99,191.91z M87.74,211.48c2.28,0,2.42-0.21,1.85-2.42l-1-4.2c-0.57-2.21-0.85-2.21-1.57-0.07l-1.28,4.27
		c-0.64,2.21-0.5,2.42,1.85,2.42H87.74z"/>
	<path d="M156.62,210.19c0,5.27-0.43,5.69-5.69,5.69h-5.98c-2.7,0-2.63,0-3.84-2.63c-0.64-1.42-1.78-1.64-2.85-1.64
		c-2.28,0-3.2,1.49-3.2,7.05c0,6.26,2.28,6.76,4.84,6.76c1.71,0,3.27-0.5,4.2-1.99c2.42-3.77,2.21-3.63,6.69-3.63h1
		c4.91,0,5.48,0.71,4.13,5.62c-2.13,7.97-9.11,12.03-17.79,12.03c-11.1,0-18.64-6.4-18.64-18.79c0-14.02,8.33-18.79,15.09-18.79
		c3.56,0,6.69,0.71,9.04,3.77c1.07,1.35,1.28,1.28,1.28-0.43v-0.14c0-2.13,0.21-2.35,2.42-2.35h3.63c5.27,0,5.69,0.43,5.69,5.69
		V210.19z"/>
	<path d="M196.11,219.59c-0.07,1.35-0.14,1.49-1.57,1.49h-17.72c-2.56,0-2.85,0.36-2.21,2.85c0.64,2.21,2.13,2.78,4.7,2.78
		c1.28,0,2.42-0.29,3.34-1.07c2.99-2.7,2.56-2.56,6.62-2.56h1.78c4.91,0,5.41,0.78,3.2,5.48c-2.7,5.62-8.4,8.89-16.44,8.89
		c-11.88,0-19.07-7.19-19.07-18.71c0-13.02,9.61-18.86,19.07-18.86c10.89,0,18.29,6.26,18.29,18V219.59z M177.68,211.9
		c-1.14,0-2.06,0.36-2.63,1.49c-1.07,1.99-0.85,2.42,1.42,2.42h2.49c2.14,0,2.35-0.36,1.42-2.42
		C179.89,212.26,179.04,211.9,177.68,211.9z"/>
</g>
<g>
	<path d="M214.24,235.24l-3.2-16.33h2.13c0.99,5.44,1.99,11.15,2.2,13.55h0.02c0.33-2.44,1.93-9.73,2.68-13.55h1.89
		c0.72,3.63,2.32,11.13,2.61,13.45h0.05c0.35-2.97,1.78-9.85,2.4-13.45h2.01l-3.46,16.33h-2.09c-0.71-3.66-2.17-10.57-2.52-13.15
		h-0.04c-0.39,2.74-1.87,9.57-2.62,13.15H214.24z"/>
	<path d="M236.34,227.51h-5.41v5.97h6.02l-0.27,1.76h-7.74v-16.33h7.66v1.78h-5.68v5.05h5.41V227.51z"/>
	<path d="M238.94,218.91h4.39c2.52,0,4.03,1.48,4.03,4.01c0,2.17-1.04,3.12-1.98,3.46c1.22,0.44,2.51,1.57,2.51,4.08
		c0,2.97-1.82,4.79-4.67,4.79h-4.28V218.91z M242.7,225.66c2.01,0,2.7-0.87,2.7-2.56c0-1.6-0.84-2.54-2.5-2.54h-1.99v5.1H242.7z
		 M240.92,233.62h2.11c1.83,0,2.84-1.08,2.84-3.17c0-2.09-1.03-3.16-3.18-3.16h-1.77V233.62z"/>
	<path d="M255.92,230.9c0.13,1.62,0.89,2.93,2.62,2.93c1.66,0,2.46-0.93,2.46-2.68c0-1.64-0.69-2.53-2.88-3.59
		c-2.6-1.24-3.72-2.38-3.72-4.76c0-2.31,1.48-4.11,4.2-4.11c3.25,0,4.11,2.3,4.16,4.26h-1.98c-0.08-0.82-0.32-2.61-2.25-2.61
		c-1.49,0-2.13,1.01-2.13,2.28c0,1.49,0.66,2.19,2.69,3.15c2.87,1.36,3.97,2.71,3.97,5.2c0,2.58-1.48,4.51-4.57,4.51
		c-3.36,0-4.45-2.19-4.58-4.58H255.92z"/>
	<path d="M274.58,226.94c0,5.64-1.38,8.55-4.96,8.55c-3.39,0-4.84-2.82-4.84-8.54c0-5.63,1.7-8.28,4.94-8.28
		C273.12,218.67,274.58,221.38,274.58,226.94z M266.84,226.92c0,4.51,0.87,6.85,2.84,6.85c2.03,0,2.83-2.25,2.83-6.82
		c0-4.57-0.86-6.53-2.85-6.53C267.72,220.41,266.84,222.62,266.84,226.92z"/>
	<path d="M277.11,218.91h2.01v14.58h5.79l-0.26,1.75h-7.53V218.91z"/>
	<path d="M288.32,218.91v11.42c0,1.71,0.49,3.45,2.57,3.45c2.08,0,2.58-1.46,2.58-3.45v-11.41h2.01v11.45
		c0,2.96-1.09,5.14-4.63,5.14c-3.43,0-4.55-2.05-4.55-5.06v-11.53H288.32z"/>
	<path d="M300.52,220.69h-3.61v-1.78h9.23v1.78h-3.61v14.55h-2.01V220.69z"/>
	<path d="M309.71,218.91v16.33h-2.01v-16.33H309.71z"/>
	<path d="M322.09,226.94c0,5.64-1.38,8.55-4.96,8.55c-3.39,0-4.84-2.82-4.84-8.54c0-5.63,1.7-8.28,4.94-8.28
		C320.64,218.67,322.09,221.38,322.09,226.94z M314.35,226.92c0,4.51,0.87,6.85,2.84,6.85c2.03,0,2.83-2.25,2.83-6.82
		c0-4.57-0.86-6.53-2.85-6.53C315.23,220.41,314.35,222.62,314.35,226.92z"/>
	<path d="M324.63,235.24v-16.33h2.42c4.3,10.87,4.93,12.44,5.14,13.17h0.02c-0.12-2.15-0.15-4.6-0.15-7.25v-5.92h1.86v16.33h-2.31
		c-4.46-11.45-5.05-12.99-5.24-13.66h-0.02c0.12,2.04,0.13,4.66,0.13,7.6v6.06H324.63z"/>
	<path d="M338.09,230.9c0.13,1.62,0.89,2.93,2.62,2.93c1.66,0,2.46-0.93,2.46-2.68c0-1.64-0.69-2.53-2.88-3.59
		c-2.6-1.24-3.72-2.38-3.72-4.76c0-2.31,1.48-4.11,4.2-4.11c3.25,0,4.11,2.3,4.16,4.26h-1.98c-0.08-0.82-0.32-2.61-2.25-2.61
		c-1.49,0-2.13,1.01-2.13,2.28c0,1.49,0.66,2.19,2.69,3.15c2.87,1.36,3.97,2.71,3.97,5.2c0,2.58-1.48,4.51-4.57,4.51
		c-3.36,0-4.45-2.19-4.58-4.58H338.09z"/>
</g>
<g>
	<path d="M90.9,154.73c-14.07,9.26-20.1,18.11-23.11,32.37c-11.85-12.07-17.26-22.65-13.72-39.31"/>
	<path d="M96.35,134.56c-34.7,0-62.82-19.62-62.82-43.81s28.13-43.81,62.82-43.81c0.63,0,1.25,0.02,1.87,0.03
		c-5.63-1.31-11.56-2.03-17.69-2.03c-36.42,0-65.95,24.75-65.95,55.27c0,30.52,29.53,55.27,65.95,55.27
		c27.58,0,51.2-14.2,61.05-34.34C130.15,129.4,114.12,134.56,96.35,134.56z"/>
	<polygon points="162.98,100.63 117.54,107.71 129.31,124.39 141.08,141.07 	"/>
	<path d="M123.23,109.48c0.2,0.82,0.31,1.65,0.31,2.5c0,10.94-17.11,19.81-38.21,19.81c-13.57,0-25.48-3.67-32.26-9.2
		c0.45,10.75,18.03,19.39,39.67,19.39c21.92,0,39.7-8.87,39.7-19.81C132.45,117.34,128.98,112.92,123.23,109.48z"/>
</g>
<path d="M159.39,12.55c-33.31,0-60.92,14.85-66.13,34.3c8.47,0.17,15.47,1.8,21.21,4.5c9.31-16.64,31.55-28.36,57.51-28.36
	c22.3,0,41.85,8.64,52.82,21.62C218.17,26.27,191.41,12.55,159.39,12.55z"/>
<path d="M178.39,180.51c15.61,6.33,23.25,13.82,28.99,27.22c9.26-14.15,12.5-25.59,5.76-41.23"/>
<path d="M231.93,65.23c34.7,0,62.82,19.62,62.82,43.81s-28.13,43.81-62.82,43.81c-0.63,0-1.25-0.02-1.87-0.03
	c5.63,1.31,11.56,2.03,17.69,2.03c36.42,0,65.95-24.75,65.95-55.27c0-30.52-29.53-55.27-65.95-55.27c-27.58,0-51.2,14.2-61.05,34.34
	C198.13,70.39,214.16,65.23,231.93,65.23z"/>
<polygon points="165.29,99.16 210.74,92.08 198.97,75.4 187.2,58.72 "/>
<path d="M205.05,90.31c-0.2-0.82-0.31-1.65-0.31-2.5c0-10.94,17.11-19.81,38.21-19.81c13.57,0,25.48,3.67,32.26,9.2
	c-0.45-10.75-18.03-19.39-39.67-19.39c-21.92,0-39.7,8.87-39.7,19.81C195.83,82.45,199.3,86.88,205.05,90.31z"/>
<path d="M168.89,187.24c33.31,0,60.92-14.85,66.13-34.3c-8.47-0.17-15.47-1.8-21.21-4.5c-9.31,16.64-31.55,28.36-57.51,28.36
	c-22.3,0-41.85-8.64-52.82-21.62C110.11,173.52,136.87,187.24,168.89,187.24z"/>
</svg>
