<?xml version="1.0" encoding="utf-8"?>
<!-- Generator: Adobe Illustrator 24.3.0, SVG Export Plug-In . SVG Version: 6.00 Build 0)  -->
<svg version="1.1" id="Layer_1" xmlns="http://www.w3.org/2000/svg" xmlns:xlink="http://www.w3.org/1999/xlink" x="0px" y="0px"
	 viewBox="0 0 360 248.39" style="enable-background:new 0 0 360 248.39;" xml:space="preserve">
<style type="text/css">
	.st0{fill:#5064AE;}
	.st1{opacity:0.3;}
	.st2{opacity:0.6;}
</style>
<g>
	<path class="st0" d="M78.12,193.51c1.89-5.03,2.48-5.47,7.87-5.47h9.26c5.39,0,5.97,0.44,7.72,5.54l10.13,29.44
		c0.73,2.11,0.95,2.26,3.21,2.26h0.15c2.19,0,2.4,0.22,2.4,2.4v5.68c0,5.39-0.44,5.83-5.83,5.83H93.28c-5.39,0-5.83-0.44-5.83-5.83
		v-5.61c0-2.26,0.22-2.48,2.55-2.48h0.15c2.26,0,2.4-0.22,1.82-2.4v-0.15c-0.58-2.33-0.88-2.48-3.21-2.48H84.9
		c-2.33,0-2.62,0.15-3.28,2.48l-0.07,0.22c-0.66,2.11-0.51,2.33,1.75,2.33h0.15c2.19,0,2.4,0.22,2.4,2.4v5.68
		c0,5.39-0.44,5.83-5.83,5.83H66.82c-5.39,0-5.83-0.44-5.83-5.83v-5.61c0-2.26,0.22-2.48,2.48-2.48h0.14c2.26,0,2.55-0.14,3.35-2.33
		L78.12,193.51z M87.08,213.55c2.33,0,2.48-0.22,1.89-2.48l-1.02-4.3c-0.58-2.26-0.87-2.26-1.6-0.07l-1.31,4.37
		c-0.65,2.26-0.51,2.48,1.89,2.48H87.08z"/>
	<path class="st0" d="M157.62,212.24c0,5.39-0.44,5.83-5.83,5.83h-6.12c-2.77,0-2.7,0-3.94-2.7c-0.66-1.46-1.82-1.68-2.91-1.68
		c-2.33,0-3.28,1.53-3.28,7.21c0,6.41,2.33,6.92,4.96,6.92c1.75,0,3.35-0.51,4.3-2.04c2.48-3.86,2.26-3.72,6.85-3.72h1.02
		c5.03,0,5.61,0.73,4.23,5.76c-2.19,8.16-9.33,12.31-18.22,12.31c-11.37,0-19.09-6.56-19.09-19.24c0-14.36,8.53-19.24,15.45-19.24
		c3.64,0,6.85,0.73,9.26,3.86c1.09,1.38,1.31,1.31,1.31-0.44v-0.15c0-2.19,0.22-2.4,2.48-2.4h3.72c5.39,0,5.83,0.44,5.83,5.83
		V212.24z"/>
	<path class="st0" d="M198.06,221.86c-0.07,1.38-0.15,1.53-1.6,1.53h-18.14c-2.62,0-2.91,0.37-2.26,2.91
		c0.66,2.26,2.18,2.84,4.81,2.84c1.31,0,2.48-0.29,3.42-1.09c3.06-2.77,2.62-2.62,6.78-2.62h1.82c5.03,0,5.54,0.8,3.28,5.61
		c-2.77,5.76-8.6,9.11-16.83,9.11c-12.17,0-19.53-7.36-19.53-19.16c0-13.33,9.84-19.31,19.53-19.31c11.15,0,18.73,6.41,18.73,18.43
		V221.86z M179.18,213.99c-1.17,0-2.11,0.36-2.7,1.53c-1.09,2.04-0.87,2.48,1.46,2.48h2.55c2.19,0,2.4-0.36,1.46-2.48
		C181.44,214.35,180.57,213.99,179.18,213.99z"/>
	<path class="st0" d="M213.51,239.2l-3.28-16.72h2.18c1.02,5.57,2.04,11.42,2.26,13.87h0.02c0.34-2.5,1.98-9.96,2.74-13.87h1.93
		c0.74,3.72,2.37,11.4,2.67,13.78h0.05c0.36-3.04,1.82-10.09,2.46-13.78h2.06l-3.54,16.72h-2.14c-0.72-3.75-2.22-10.83-2.58-13.46
		h-0.04c-0.4,2.81-1.92,9.8-2.68,13.46H213.51z"/>
	<path class="st0" d="M236.15,231.29h-5.54v6.11h6.16l-0.27,1.8h-7.93v-16.72h7.85v1.83h-5.81v5.17h5.54V231.29z"/>
	<path class="st0" d="M238.81,222.48h4.5c2.58,0,4.13,1.52,4.13,4.1c0,2.22-1.07,3.2-2.03,3.54c1.25,0.45,2.57,1.61,2.57,4.18
		c0,3.04-1.86,4.9-4.78,4.9h-4.38V222.48z M242.66,229.39c2.05,0,2.77-0.89,2.77-2.62c0-1.63-0.86-2.6-2.56-2.6h-2.04v5.23H242.66z
		 M240.83,237.54h2.16c1.88,0,2.9-1.11,2.9-3.24c0-2.14-1.06-3.23-3.25-3.23h-1.81V237.54z"/>
	<path class="st0" d="M256.2,234.75c0.13,1.66,0.91,3,2.68,3c1.7,0,2.52-0.95,2.52-2.75c0-1.68-0.71-2.6-2.95-3.68
		c-2.66-1.27-3.81-2.44-3.81-4.87c0-2.37,1.52-4.21,4.3-4.21c3.33,0,4.21,2.36,4.26,4.36h-2.02c-0.09-0.84-0.33-2.67-2.3-2.67
		c-1.53,0-2.18,1.04-2.18,2.34c0,1.53,0.68,2.25,2.75,3.23c2.94,1.39,4.06,2.78,4.06,5.33c0,2.64-1.52,4.61-4.68,4.61
		c-3.44,0-4.56-2.25-4.69-4.69H256.2z"/>
	<path class="st0" d="M275.3,230.7c0,5.78-1.42,8.76-5.08,8.76c-3.47,0-4.96-2.89-4.96-8.74c0-5.76,1.74-8.48,5.06-8.48
		C273.81,222.24,275.3,225,275.3,230.7z M267.37,230.68c0,4.62,0.89,7.01,2.9,7.01c2.08,0,2.9-2.31,2.9-6.98
		c0-4.68-0.88-6.69-2.92-6.69C268.27,224.02,267.37,226.28,267.37,230.68z"/>
	<path class="st0" d="M277.9,222.48h2.06v14.93h5.92l-0.27,1.79h-7.71V222.48z"/>
	<path class="st0" d="M289.37,222.48v11.69c0,1.75,0.5,3.53,2.64,3.53c2.13,0,2.64-1.49,2.64-3.53v-11.69h2.06v11.72
		c0,3.04-1.12,5.27-4.74,5.27c-3.51,0-4.66-2.1-4.66-5.18v-11.81H289.37z"/>
	<path class="st0" d="M301.86,224.3h-3.7v-1.83h9.45v1.83h-3.7v14.9h-2.06V224.3z"/>
	<path class="st0" d="M311.28,222.48v16.72h-2.06v-16.72H311.28z"/>
	<path class="st0" d="M323.96,230.7c0,5.78-1.42,8.76-5.08,8.76c-3.47,0-4.96-2.89-4.96-8.74c0-5.76,1.74-8.48,5.06-8.48
		C322.47,222.24,323.96,225,323.96,230.7z M316.03,230.68c0,4.62,0.89,7.01,2.91,7.01c2.08,0,2.9-2.31,2.9-6.98
		c0-4.68-0.88-6.69-2.92-6.69C316.93,224.02,316.03,226.28,316.03,230.68z"/>
	<path class="st0" d="M326.55,239.2v-16.72h2.48c4.4,11.13,5.05,12.74,5.26,13.49h0.02c-0.12-2.2-0.15-4.71-0.15-7.43v-6.06h1.9
		v16.72h-2.37c-4.57-11.72-5.17-13.3-5.36-13.98h-0.03c0.12,2.09,0.14,4.77,0.14,7.78v6.2H326.55z"/>
	<path class="st0" d="M340.34,234.75c0.13,1.66,0.91,3,2.68,3c1.7,0,2.52-0.95,2.52-2.75c0-1.68-0.71-2.6-2.95-3.68
		c-2.66-1.27-3.81-2.44-3.81-4.87c0-2.37,1.52-4.21,4.3-4.21c3.33,0,4.21,2.36,4.26,4.36h-2.02c-0.09-0.84-0.33-2.67-2.3-2.67
		c-1.53,0-2.18,1.04-2.18,2.34c0,1.53,0.68,2.25,2.75,3.23c2.94,1.39,4.06,2.78,4.06,5.33c0,2.64-1.52,4.61-4.68,4.61
		c-3.44,0-4.56-2.25-4.69-4.69H340.34z"/>
</g>
<path class="st1" d="M160.45,9.85c-33.62,0-61.57,14.78-67.46,34.28c-4.3-0.72-8.74-1.12-13.3-1.12c-37.3,0-67.54,25.34-67.54,56.6
	c0,23.01,16.39,42.79,39.91,51.64c-2.42,15.41,3.15,25.69,14.58,37.33c3.07-14.56,9.22-23.6,23.54-33.06
	c18.53-2.42,34.55-11.16,44.86-23.5l6.65,9.43l22.43-41.41l-46.53,7.25l5.55,7.87c-3.2,9.54-19.23,16.79-38.53,16.79
	c-7.48,0-14.46-1.1-20.41-2.99c-19.49-7.71-32.65-22.3-32.65-39.04c0-24.57,28.32-44.52,63.44-44.85c7.66,0.4,14.11,2,19.46,4.52
	c9.53-17.04,32.31-29.04,58.9-29.04c22.83,0,42.85,8.85,54.09,22.14C220.64,23.9,193.24,9.85,160.45,9.85z M131.53,127.25
	c0.02-0.04,0.04-0.08,0.06-0.12l0.05,0.07C131.6,127.22,131.57,127.24,131.53,127.25z"/>
<path class="st2" d="M250.93,42.38c-22.91,0-43.14,9.56-55.35,24.18l-6.65-9.43L166.5,98.54l46.53-7.25l-5.55-7.87
	c3.2-9.54,19.23-16.79,38.53-16.79c7.48,0,14.46,1.1,20.41,2.99c19.49,7.71,32.65,22.3,32.65,39.04c0,24.57-28.32,44.52-63.44,44.85
	c-7.66-0.4-14.11-2-19.46-4.52c-9.53,17.04-32.31,29.04-58.9,29.04c-22.83,0-42.85-8.85-54.09-22.14
	c6.8,18.78,34.2,32.84,66.99,32.84c7,0,13.74-0.65,20.1-1.84c9.33,5.56,14.88,12.46,19.32,22.82c7.59-11.61,11.21-21.43,8.82-33.11
	c9.75-5.9,16.62-13.57,19.22-22.16c4.3,0.72,8.74,1.12,13.3,1.12c37.3,0,67.54-25.34,67.54-56.6
	C318.47,67.72,288.23,42.38,250.93,42.38z M199.09,71.33c-0.02,0.04-0.04,0.08-0.06,0.12l-0.05-0.07
	C199.02,71.37,199.06,71.35,199.09,71.33z"/>
</svg>
