<svg height="512" viewBox="0 0 74 74" width="512" xmlns="http://www.w3.org/2000/svg"><g id="Icons"><path d="m39.22 64.92h-2.9a1 1 0 0 1 0-2h2.9a1 1 0 0 1 0 2z"/><path d="m61.65 64.92h-5.46a1 1 0 0 1 0-2h5.46a8.345 8.345 0 1 0 0-16.69h-.68a1 1 0 0 1 -1-1.072c.029-.414.057-.792.057-1.188a15.55 15.55 0 0 0 -28.809-8.135 1.009 1.009 0 0 1 -.9.474l-.213-.014c-.112-.007-.224-.015-.336-.015a10.683 10.683 0 0 0 -10.511 9.095 1 1 0 0 1 -.989.855h-.24a8.345 8.345 0 0 0 0 16.69h11.291a1 1 0 1 1 0 2h-11.29a10.345 10.345 0 0 1 -.6-20.673 12.7 12.7 0 0 1 12.34-9.967h.072a17.549 17.549 0 0 1 32.188 9.69v.267a10.345 10.345 0 0 1 -.38 20.683z"/><path d="m49.19 64.92h-2.97a1 1 0 0 1 0-2h2.97a1 1 0 0 1 0 2z"/><path d="m3 31.535a1.02 1.02 0 0 1 -.145-.01 1 1 0 0 1 -.845-1.133 23.345 23.345 0 0 1 26.423-19.74 1 1 0 0 1 -.288 1.98 21.352 21.352 0 0 0 -24.156 18.046 1 1 0 0 1 -.989.857z"/><path d="m10.148 32.57a1.016 1.016 0 0 1 -.148-.01 1 1 0 0 1 -.846-1.133 16.116 16.116 0 0 1 18.246-13.627 1 1 0 1 1 -.287 1.979 14.115 14.115 0 0 0 -15.976 11.934 1 1 0 0 1 -.989.857z"/><path d="m17.3 33.6a1.02 1.02 0 0 1 -.145-.01 1 1 0 0 1 -.845-1.133 8.89 8.89 0 0 1 10.058-7.515 1 1 0 1 1 -.287 1.979 6.888 6.888 0 0 0 -7.793 5.822 1 1 0 0 1 -.988.857z"/></g></svg>